<svg xmlns="http://www.w3.org/2000/svg" width="354.62729pt" height="150pt" viewBox="0 0 354.62729 150"><defs><clipPath id="a"><path d="M0 0h233v98.262H0Zm0 0"/></clipPath></defs><g clip-path="url(#a)" transform="scale(1.52654)"><path d="m117.625 53.254 19.535-41.895h10.402l5.301-11.363h55.352l-5.348 11.469h29.442l-40.473 86.797H157.57c-31.898 0-44.855-6.016-56.289-15.383-14.554-11.926-22.836-22.945-35.547-23.152L47.766 98.262H0l40.277-86.38 1.075-.073c19.691-1.325 36.992 2.421 51.89 15.773 3.895 3.488 7.453 7.363 10.723 11.441 3 3.747 6.12 7.704 9.597 11.02 1.231 1.172 2.606 2.242 4.063 3.21" style="fill:#211e1e;fill-opacity:1;fill-rule:evenodd;stroke:none"/></g><path d="M182.027 82.904c1.628.859 3.34 1.532 5.123 1.95 1.353.31 2.73.471 4.12.471 7.985 0 12.898-5.993 15.987-12.624l24.627-52.975h-20.4l-29.457 63.178" style="fill:#ee3a21;fill-opacity:1;fill-rule:evenodd;stroke:none;stroke-width:1.52654"/><path d="M309.088 2.987h-74.139l-6.696 14.353h7.883l-26.363 56.53c-3.285 7.054-8.932 14.234-18.503 14.234-12.958 0-22.749-11.849-34.735-26.798-4.436-5.54-9.815-11.545-16.052-17.132-15.045-13.488-37.406-26.207-77.18-23.53L5.57 144.46h63.888l29.81-63.935c23.512 0 41.09 26.684 70.077 48.598 20.286 15.337 42.272 17.353 72.833 17.353l66.91-143.489" style="fill:#fff;fill-opacity:1;fill-rule:evenodd;stroke:none;stroke-width:1.52654"/></svg>