<svg width="151" height="202" viewBox="0 0 151 202" fill="none" xmlns="http://www.w3.org/2000/svg">
<rect x="0.875" width="150" height="150" rx="75" fill="#ECECEC"/>
<path d="M42.125 75H109.625" stroke="black" stroke-width="5" stroke-linecap="round" stroke-linejoin="round"/>
<path d="M75.875 41.25L75.875 108.75" stroke="black" stroke-width="5" stroke-linecap="round" stroke-linejoin="round"/>
<path d="M34.0879 179.434V181.23H36.4512V179.434H38.1895V185.566H39.498V179.434H41.2559V181.23H43.6191V179.434H45.3574V185.84H39.752V187.578H46.8223V189.062H30.8652V187.578H37.916V185.84H32.291V179.434H34.0879ZM34.0879 184.336H36.4512V182.656H34.0879V184.336ZM41.2559 184.336H43.6191V182.656H41.2559V184.336ZM34.6738 190.156V191.738H42.9551V190.156H44.8105V196.445H32.8379V190.156H34.6738ZM34.6738 194.961H42.9551V193.184H34.6738V194.961ZM62.7012 179.16V196.66H60.8262V179.16H62.7012ZM57.4863 181.035C57.4863 186.152 55.2988 190.605 49.3027 193.477L48.3262 191.973C52.9844 189.756 55.25 186.602 55.6113 182.52H49.166V181.035H57.4863ZM80.084 179.18V192.383H78.209V190.098H74.498V188.613H78.209V179.18H80.084ZM80.5137 194.785V196.289H67.877V190.957H69.7324V194.785H80.5137ZM65.3184 185.996C67.5059 185.986 70.25 185.957 72.9551 185.781C73.248 184.014 73.3262 182.637 73.3457 181.66H66.9004V180.156H75.2012V180.84C75.2012 181.787 75.2012 183.408 74.8301 185.625C75.4746 185.566 76.1094 185.498 76.7246 185.41L76.8613 186.758C75.2891 187.031 73.6582 187.197 72.0566 187.305V191.25H70.2012V187.402C68.5312 187.48 66.9492 187.5 65.5723 187.5L65.3184 185.996ZM103.561 189.707V191.23H96.4902V196.68H94.6543V191.23H87.6035V189.707H103.561ZM102.037 181.27V182.773H96.5098C96.6172 184.707 99.2539 186.592 102.584 187.012L101.92 188.496C99.1074 188.105 96.7148 186.787 95.5918 185C94.4492 186.807 92.0371 188.105 89.2246 188.496L88.541 187.012C91.8711 186.592 94.5273 184.746 94.6543 182.773H89.1074V181.27H94.6543V179.16H96.4902V181.27H102.037ZM118.521 179.16V186.133H121.236V187.676H118.521V196.641H116.666V179.16H118.521ZM113.951 180.996C113.932 186.055 111.705 190.566 105.943 193.418L104.908 191.973C109.293 189.785 111.676 186.621 112.057 182.539H105.787V180.996H113.951Z" fill="white"/>
</svg>
