<svg width="151" height="202" viewBox="0 0 151 202" fill="none" xmlns="http://www.w3.org/2000/svg">
<rect x="0.46875" width="150" height="150" rx="75" fill="#ECECEC"/>
<rect x="17.9724" y="44.4422" width="53.6729" height="77.6529" rx="12" transform="rotate(-15 17.9724 44.4422)" fill="#ECECEC" stroke="black" stroke-width="4"/>
<rect x="28.4646" y="50.4979" width="36.5443" height="60.5243" rx="6" transform="rotate(-15 28.4646 50.4979)" stroke="black" stroke-width="4"/>
<path d="M52.8597 79.4633C51.9276 75.8658 52.6062 74.4739 54.1032 72.9248C55.1644 71.7717 55.9051 70.6114 55.5483 69.2798C55.1605 67.8324 53.745 67.1878 52.3179 67.5702C50.9205 67.9447 49.8824 69.1846 50.2806 70.9085L46.0587 72.0398C45.0542 67.9342 47.6266 65.1661 51.4323 64.1464C55.5651 63.039 59.0747 64.3635 60.0288 67.9242C60.6649 70.2979 59.8272 72.1667 58.1674 73.8215C56.7662 75.2519 56.2711 76.3774 56.7843 78.4117L56.8696 78.7302L52.945 79.7818L52.8597 79.4633ZM56.7495 85.7743C55.3521 86.1488 53.9275 85.3515 53.6005 84.0119C53.2139 82.6882 54.0567 81.3144 55.4541 80.94C56.7624 80.5895 58.2089 81.3498 58.5657 82.6815C58.9225 84.0131 58.0577 85.4238 56.7495 85.7743Z" fill="black"/>
<rect x="81.117" y="30.5505" width="53.6729" height="77.6529" rx="12" transform="rotate(15 81.117 30.5505)" fill="#ECECEC" stroke="black" stroke-width="4"/>
<rect x="87.1717" y="41.0398" width="36.5443" height="60.5243" rx="6" transform="rotate(15 87.1717 41.0398)" stroke="black" stroke-width="4"/>
<path d="M93.8147 78.3234C94.8062 74.7418 96.0899 73.8757 98.1608 73.2826C99.6565 72.8146 100.878 72.1801 101.235 70.8485C101.623 69.4011 100.719 68.1351 99.292 67.7527C97.8946 67.3783 96.3757 67.9331 95.8586 69.6251L91.6366 68.4939C92.8195 64.4361 96.4313 63.3251 100.237 64.3448C104.37 65.4522 106.747 68.3541 105.793 71.9147C105.157 74.2884 103.497 75.4881 101.232 76.0913C99.3035 76.6294 98.312 77.3565 97.7393 79.3749L97.654 79.6934L93.7294 78.6418L93.8147 78.3234ZM94.0279 85.7337C92.6305 85.3593 91.7954 83.9566 92.1819 82.6329C92.509 81.2933 93.9258 80.525 95.3232 80.8994C96.6314 81.25 97.504 82.6317 97.1472 83.9633C96.7904 85.295 95.3361 86.0843 94.0279 85.7337Z" fill="black"/>
<path d="M24.7656 179.16V196.66H22.9883V187.695H20.7422V195.762H19.0039V179.512H20.7422V186.172H22.9883V179.16H24.7656ZM12.4609 181.23V190.566C14.082 190.557 15.8496 190.43 17.832 190.039L18.0273 191.66C15.625 192.09 13.6133 192.207 11.7383 192.207H10.6055V181.23H12.4609ZM36.6406 180.469C39.2578 180.469 41.1133 182.852 41.1328 186.602C41.1133 190.371 39.2578 192.754 36.6406 192.754C34.0234 192.754 32.1484 190.371 32.168 186.602C32.1484 182.852 34.0234 180.469 36.6406 180.469ZM36.6406 182.129C35.0391 182.129 33.9453 183.848 33.9453 186.602C33.9453 189.375 35.0391 191.094 36.6406 191.094C38.2617 191.094 39.3555 189.375 39.3555 186.602C39.3555 183.848 38.2617 182.129 36.6406 182.129ZM45.5859 179.16V186.016H48.3984V187.578H45.5859V196.66H43.7305V179.16H45.5859ZM62.9883 179.18V184.336H65.5273V185.898H62.9883V192.031H61.1328V179.18H62.9883ZM63.7305 194.785V196.289H51.8945V190.762H53.75V194.785H63.7305ZM51.7383 180.43V183.223H56.3281V180.43H58.1641V189.141H49.9219V180.43H51.7383ZM51.7383 187.656H56.3281V184.688H51.7383V187.656ZM78.4375 179.531V195.781H76.7188V187.188H74.3555V185.645H76.7188V179.531H78.4375ZM70.6055 181.309V182.812H68.6719V190.645C69.2676 190.615 69.9805 190.547 70.7812 190.352L70.918 191.895C69.5312 192.207 68.4766 192.207 67.6953 192.207H66.9727V181.309H70.6055ZM75.3711 181.309V182.812H73.0664V190.625C73.8574 190.596 74.7363 190.508 75.7227 190.254L75.8789 191.777C74.4336 192.148 73.2227 192.168 72.1484 192.168H71.3867V181.309H75.3711ZM81.7773 179.16V196.66H80.0195V179.16H81.7773ZM100.898 180.859V195H98.9258L91.7578 184.668H91.6406V195H89.4922V180.859H91.4844L98.6523 191.211H98.7891V180.859H100.898ZM111.094 179.434V181.23H113.457V179.434H115.195V185.566H116.504V179.434H118.262V181.23H120.625V179.434H122.363V185.84H116.758V187.578H123.828V189.062H107.871V187.578H114.922V185.84H109.297V179.434H111.094ZM111.094 184.336H113.457V182.656H111.094V184.336ZM118.262 184.336H120.625V182.656H118.262V184.336ZM111.68 190.156V191.738H119.961V190.156H121.816V196.445H109.844V190.156H111.68ZM111.68 194.961H119.961V193.184H111.68V194.961ZM139.707 179.16V196.66H137.832V179.16H139.707ZM134.492 181.035C134.492 186.152 132.305 190.605 126.309 193.477L125.332 191.973C129.99 189.756 132.256 186.602 132.617 182.52H126.172V181.035H134.492Z" fill="white"/>
</svg>
