<svg width="151" height="202" viewBox="0 0 151 202" fill="none" xmlns="http://www.w3.org/2000/svg">
<rect x="0.171875" width="150" height="150" rx="75" fill="#ECECEC"/>
<path fill-rule="evenodd" clip-rule="evenodd" d="M100.714 37.4727C95.5588 33.0979 88.0564 33.4677 83.9563 38.2986L62.0148 64.1515C57.9148 68.9825 59.5416 75.6722 64.6963 80.047L70.3135 84.8144C71.3033 85.6544 72.7939 85.499 73.5892 84.4728C74.3359 83.5092 74.1919 82.1285 73.2625 81.3397L67.6453 76.5723C65.0679 74.3849 63.5598 69.6181 65.6098 67.2027L87.5514 41.3497C89.6014 38.9343 95.2172 38.7247 97.7945 40.9121L105.572 47.5132C108.15 49.7006 108.788 55.1346 106.738 57.55L98.1025 67.7255C97.2345 68.7483 97.3599 70.2811 98.3827 71.1492C99.4055 72.0172 100.938 71.8918 101.806 70.869L110.401 60.7423C114.501 55.9114 113.646 48.4486 108.491 44.0738L100.714 37.4727ZM49.6324 112.528C54.7871 116.903 62.2895 116.533 66.3896 111.702L88.3311 85.8493C92.4311 81.0184 90.8044 74.3287 85.6497 69.9539L80.0324 65.1865C79.0426 64.3465 77.552 64.5019 76.7568 65.5281C76.01 66.4917 76.154 67.8724 77.0834 68.6612L82.7007 73.4286C85.278 75.616 86.7861 80.3828 84.7361 82.7982L62.7946 108.651C60.7446 111.067 55.1287 111.276 52.5514 109.089L44.7735 102.488C42.1962 100.3 41.5574 94.8663 43.6074 92.4508L52.2434 82.2754C53.1114 81.2526 52.986 79.7198 51.9632 78.8517C50.9404 77.9837 49.4076 78.1091 48.5395 79.1319L39.9449 89.2586C35.8449 94.0895 36.6999 101.552 41.8546 105.927L49.6324 112.528Z" fill="black"/>
<path d="M47.3789 180.859H49.5273V190.156C49.5273 193.125 47.3008 195.234 43.9219 195.234C40.5039 195.234 38.2969 193.125 38.2969 190.156V180.859H40.4453V189.98C40.4453 191.895 41.7734 193.281 43.9219 193.281C46.0508 193.281 47.3789 191.895 47.3789 189.98V180.859ZM52.418 195V180.859H57.457C60.7383 180.859 62.3594 182.695 62.3594 185.293C62.3594 187.197 61.5 188.643 59.7812 189.277L62.9062 195H60.4648L57.5938 189.668H57.457H54.5664V195H52.418ZM54.5664 187.812H57.2422C59.332 187.812 60.1914 186.895 60.1914 185.293C60.1914 183.691 59.332 182.695 57.2422 182.695H54.5664V187.812ZM64.7422 195V180.859H66.8906V193.145H73.2773V195H64.7422ZM84.918 182.52C84.918 184.434 86.1484 186.367 88.4141 187.227L87.4375 188.652C85.8066 188.027 84.6641 186.836 84.0391 185.391C83.3945 187.021 82.1934 188.438 80.5039 189.16L79.4883 187.715C81.8516 186.68 83.1211 184.473 83.1211 182.52V180.254H84.918V182.52ZM94.4883 179.18V189.941H92.7305V185.254H90.6797V189.395H88.9609V179.492H90.6797V183.73H92.7305V179.18H94.4883ZM88.6289 190.273C92.2812 190.273 94.5664 191.465 94.5859 193.457C94.5664 195.449 92.2812 196.641 88.6289 196.621C84.9766 196.641 82.6914 195.449 82.7109 193.457C82.6914 191.465 84.9766 190.273 88.6289 190.273ZM88.6289 191.699C86.0898 191.699 84.5273 192.344 84.5469 193.457C84.5273 194.57 86.0898 195.215 88.6289 195.195C91.168 195.215 92.7109 194.57 92.7305 193.457C92.7109 192.344 91.168 191.699 88.6289 191.699ZM103.062 181.777C103.062 184.238 104.645 186.426 107.301 187.285L106.285 188.73C104.361 188.037 102.945 186.689 102.184 184.941C101.422 186.943 99.8984 188.496 97.7891 189.258L96.793 187.773C99.5859 186.816 101.207 184.492 101.227 181.855V180.137H103.062V181.777ZM111.441 179.16V189.492H109.586V184.238H105.895V182.715H109.586V179.16H111.441ZM105.582 189.98C109.254 189.98 111.5 191.191 111.5 193.32C111.5 195.43 109.254 196.641 105.582 196.621C101.91 196.641 99.6445 195.43 99.6641 193.32C99.6445 191.191 101.91 189.98 105.582 189.98ZM105.582 191.426C103.023 191.426 101.5 192.109 101.5 193.32C101.5 194.492 103.023 195.156 105.582 195.156C108.141 195.156 109.664 194.492 109.664 193.32C109.664 192.109 108.141 191.426 105.582 191.426Z" fill="white"/>
</svg>
