<svg width="151" height="202" viewBox="0 0 151 202" fill="none" xmlns="http://www.w3.org/2000/svg">
<rect x="0.320312" width="150" height="150" rx="75" fill="#ECECEC"/>
<path d="M43.7055 89.0307L85.3789 47.289M43.7055 89.0307L39.9075 108.058C39.6282 109.458 40.8624 110.691 42.2617 110.411L61.2522 106.606M43.7055 89.0307L52.4788 97.8184M85.3789 47.289L91.9589 40.6983C93.4216 39.4167 97.1147 37.6226 100.185 40.6983M85.3789 47.289L102.926 64.8643M100.184 40.6983H100.185M61.2522 106.606L102.926 64.8643M61.2522 106.606L52.4788 97.8184M102.926 64.8643L110.054 57.7243C111.151 56.4427 112.247 53.3305 110.054 50.5843L100.185 40.6983M52.4788 97.8184L86.477 63.7645" stroke="black" stroke-width="4" stroke-linecap="round" stroke-linejoin="round"/>
<path d="M57.3516 187.559V189.043H41.3945V187.559H57.3516ZM49.3633 190.371C53.1328 190.352 55.3984 191.484 55.3984 193.516C55.3984 195.547 53.1328 196.66 49.3633 196.66C45.5547 196.66 43.2891 195.547 43.2891 193.516C43.2891 191.484 45.5547 190.352 49.3633 190.371ZM49.3633 191.777C46.6875 191.777 45.1641 192.383 45.1641 193.516C45.1641 194.609 46.6875 195.215 49.3633 195.215C52 195.215 53.543 194.609 53.543 193.516C53.543 192.383 52 191.777 49.3633 191.777ZM49.3633 179.57C53.1914 179.59 55.6133 180.859 55.6133 182.949C55.6133 185.039 53.1914 186.289 49.3633 186.289C45.5352 186.289 43.1133 185.039 43.1133 182.949C43.1133 180.859 45.5352 179.59 49.3633 179.57ZM49.3633 181.055C46.668 181.055 45.0078 181.738 45.0273 182.949C45.0078 184.16 46.668 184.844 49.3633 184.844C52.0391 184.844 53.6992 184.16 53.6992 182.949C53.6992 181.738 52.0391 181.055 49.3633 181.055ZM74.6953 192.93V194.473H58.6797V192.93H65.7305V188.887H60.5156V180.566H72.7812V188.887H67.5664V192.93H74.6953ZM62.3125 182.051V187.422H70.9648V182.051H62.3125ZM89.5977 179.16V186.25H92.4102V187.793H89.5977V196.66H87.7617V179.16H89.5977ZM86.2383 181.895V183.418H75.8672V181.895H80.1836V179.395H82.0391V181.895H86.2383ZM81.1211 184.707C83.6211 184.707 85.457 186.387 85.4766 188.77C85.457 191.172 83.6211 192.832 81.1211 192.852C78.6016 192.832 76.7656 191.172 76.7656 188.77C76.7656 186.387 78.6016 184.707 81.1211 184.707ZM81.1211 186.23C79.6367 186.23 78.5234 187.266 78.543 188.77C78.5234 190.293 79.6367 191.309 81.1211 191.289C82.6055 191.309 83.6992 190.293 83.6992 188.77C83.6992 187.266 82.6055 186.23 81.1211 186.23ZM107.801 179.16V196.66H105.926V179.16H107.801ZM102.586 181.035C102.586 186.152 100.398 190.605 94.4023 193.477L93.4258 191.973C98.084 189.756 100.35 186.602 100.711 182.52H94.2656V181.035H102.586Z" fill="white"/>
</svg>
