<svg width="151" height="202" viewBox="0 0 151 202" fill="none" xmlns="http://www.w3.org/2000/svg">
<rect x="0.0234375" width="150" height="150" rx="75" fill="#ECECEC"/>
<path fill-rule="evenodd" clip-rule="evenodd" d="M94.6901 60.3658C101.394 61.1722 107.482 56.3912 108.289 49.6873C109.095 42.9833 104.314 36.895 97.6101 36.0887C90.9061 35.2824 84.8179 40.0633 84.0115 46.7673C83.8527 48.0876 83.9107 49.3841 84.1573 50.621L60.1265 64.4928C58.3006 63.4079 56.1681 62.7849 53.8901 62.7849C47.1379 62.7849 41.6641 68.2587 41.6641 75.0109C41.6641 81.7632 47.1379 87.237 53.8901 87.237C56.1757 87.237 58.3148 86.6098 60.1447 85.5182L84.1572 99.3795C83.9106 100.616 83.8528 101.913 84.0115 103.233C84.8179 109.937 90.9061 114.718 97.6101 113.911C104.314 113.105 109.095 107.017 108.289 100.313C107.482 93.6089 101.394 88.8279 94.6901 89.6342C91.0656 90.0702 88.0031 92.0501 86.0819 94.8366L63.9003 82.0322C65.2965 80.0453 66.1162 77.6239 66.1162 75.0109C66.1162 72.3914 65.2923 69.9643 63.8896 67.9745L86.0821 55.1638C88.0034 57.9501 91.0657 59.9299 94.6901 60.3658ZM95.2454 55.7414C99.3955 56.2406 103.164 53.2809 103.664 49.1309C104.163 44.9808 101.203 41.2119 97.053 40.7127C92.9029 40.2136 89.134 43.1732 88.6349 47.3233C88.1357 51.4734 91.0953 55.2423 95.2454 55.7414ZM53.8901 82.5794C58.0701 82.5794 61.4586 79.1909 61.4586 75.0109C61.4586 70.8309 58.0701 67.4424 53.8901 67.4424C49.7101 67.4424 46.3216 70.8309 46.3216 75.0109C46.3216 79.1909 49.7101 82.5794 53.8901 82.5794ZM95.2454 94.2586C99.3955 93.7595 103.164 96.7191 103.664 100.869C104.163 105.019 101.203 108.788 97.053 109.287C92.9029 109.786 89.134 106.827 88.6349 102.677C88.1357 98.5267 91.0953 94.7578 95.2454 94.2586Z" fill="black"/>
<path d="M48.9883 190.156C52.7773 190.156 55.1602 191.348 55.1797 193.398C55.1602 195.43 52.7773 196.641 48.9883 196.621C45.2383 196.641 42.8359 195.43 42.8359 193.398C42.8359 191.348 45.2383 190.156 48.9883 190.156ZM48.9883 191.562C46.332 191.562 44.6719 192.246 44.6914 193.398C44.6719 194.531 46.332 195.195 48.9883 195.195C51.6641 195.195 53.3242 194.531 53.3438 193.398C53.3242 192.246 51.6641 191.562 48.9883 191.562ZM55.043 180.02V181.484C55.043 182.891 55.043 184.336 54.5547 186.133L52.7383 185.938C53.207 184.15 53.207 182.861 53.207 181.504H42.9727V180.02H55.043ZM57.0352 187.207V188.711H41.1172V187.207H47.5039V183.926H49.3203V187.207H57.0352ZM74.3789 189.043V190.566H70.3164V196.66H68.4414V190.566H64.2617V196.66H62.3477V190.566H58.3633V189.043H74.3789ZM66.332 179.824C70.0234 179.824 72.5625 181.328 72.5625 183.691C72.5625 186.016 70.0234 187.5 66.332 187.48C62.6211 187.5 60.1016 186.016 60.1016 183.691C60.1016 181.328 62.6211 179.824 66.332 179.824ZM66.332 181.309C63.7344 181.328 61.9961 182.227 62.0156 183.691C61.9961 185.117 63.7344 186.016 66.332 186.016C68.9297 186.016 70.668 185.117 70.668 183.691C70.668 182.227 68.9297 181.328 66.332 181.309ZM89.3008 179.16V186.25H92.1133V187.793H89.3008V196.66H87.4648V179.16H89.3008ZM85.9414 181.895V183.418H75.5703V181.895H79.8867V179.395H81.7422V181.895H85.9414ZM80.8242 184.707C83.3242 184.707 85.1602 186.387 85.1797 188.77C85.1602 191.172 83.3242 192.832 80.8242 192.852C78.3047 192.832 76.4688 191.172 76.4688 188.77C76.4688 186.387 78.3047 184.707 80.8242 184.707ZM80.8242 186.23C79.3398 186.23 78.2266 187.266 78.2461 188.77C78.2266 190.293 79.3398 191.309 80.8242 191.289C82.3086 191.309 83.4023 190.293 83.4023 188.77C83.4023 187.266 82.3086 186.23 80.8242 186.23ZM107.504 179.16V196.66H105.629V179.16H107.504ZM102.289 181.035C102.289 186.152 100.102 190.605 94.1055 193.477L93.1289 191.973C97.7871 189.756 100.053 186.602 100.414 182.52H93.9688V181.035H102.289Z" fill="white"/>
</svg>
