<svg width="1737" height="2432" viewBox="0 0 1737 2432" fill="none" xmlns="http://www.w3.org/2000/svg">
<g clip-path="url(#clip0_3785_4191)">
<rect width="1737" height="2432" fill="url(#paint0_linear_3785_4191)"/>
<path opacity="0.3" d="M-140.016 0.111267L-673 1140.94H-57.4414L197.79 608.55C335.916 608.55 480.547 760.66 535.597 836.715C835.869 1159.19 1276.27 1173.89 1458.93 1140.94L2082 -152L1398.88 -152L1084.45 478.211C1063.97 519.249 1040.17 563.343 997.086 579.069C882.766 620.799 756.407 468.214 700.747 372.781C472.54 7.71677 45.1517 -27.7756 -140.016 0.111267Z" stroke="#027DF1" stroke-width="4"/>
<path opacity="0.2" d="M-44.0164 0.111267L-577 1140.94H38.5586L293.79 608.55C431.916 608.55 576.547 760.66 631.597 836.715C931.869 1159.19 1372.27 1173.89 1554.93 1140.94L2178 -152L1494.88 -152L1180.45 478.211C1159.97 519.249 1136.17 563.343 1093.09 579.069C978.766 620.799 852.407 468.214 796.747 372.781C568.54 7.71677 141.152 -27.7756 -44.0164 0.111267Z" stroke="#AACAE6" stroke-width="8"/>
<g opacity="0.24" filter="url(#filter0_f_3785_4191)">
<circle cx="-67" cy="883" r="401" fill="#6D5DFF"/>
</g>
<g opacity="0.28" filter="url(#filter1_f_3785_4191)">
<circle cx="1765.5" cy="536.5" r="183.5" fill="#B0FF61"/>
</g>
<g opacity="0.29" filter="url(#filter2_f_3785_4191)">
<circle cx="1892" cy="1685" r="401" fill="#5D7DFF"/>
</g>
</g>
<defs>
<filter id="filter0_f_3785_4191" x="-768" y="182" width="1402" height="1402" filterUnits="userSpaceOnUse" color-interpolation-filters="sRGB">
<feFlood flood-opacity="0" result="BackgroundImageFix"/>
<feBlend mode="normal" in="SourceGraphic" in2="BackgroundImageFix" result="shape"/>
<feGaussianBlur stdDeviation="150" result="effect1_foregroundBlur_3785_4191"/>
</filter>
<filter id="filter1_f_3785_4191" x="1282" y="53" width="967" height="967" filterUnits="userSpaceOnUse" color-interpolation-filters="sRGB">
<feFlood flood-opacity="0" result="BackgroundImageFix"/>
<feBlend mode="normal" in="SourceGraphic" in2="BackgroundImageFix" result="shape"/>
<feGaussianBlur stdDeviation="150" result="effect1_foregroundBlur_3785_4191"/>
</filter>
<filter id="filter2_f_3785_4191" x="1191" y="984" width="1402" height="1402" filterUnits="userSpaceOnUse" color-interpolation-filters="sRGB">
<feFlood flood-opacity="0" result="BackgroundImageFix"/>
<feBlend mode="normal" in="SourceGraphic" in2="BackgroundImageFix" result="shape"/>
<feGaussianBlur stdDeviation="150" result="effect1_foregroundBlur_3785_4191"/>
</filter>
<linearGradient id="paint0_linear_3785_4191" x1="868.5" y1="608" x2="868.5" y2="2432" gradientUnits="userSpaceOnUse">
<stop/>
<stop offset="1"/>
</linearGradient>
<clipPath id="clip0_3785_4191">
<rect width="1737" height="2432" fill="white"/>
</clipPath>
</defs>
</svg>
