<svg width="124" height="41" viewBox="0 0 124 41" fill="none" xmlns="http://www.w3.org/2000/svg">
<path fill-rule="evenodd" clip-rule="evenodd" d="M16.7754 32.9221L15.6358 32.9221C15.5541 32.9221 15.4726 32.9121 15.3933 32.8922L1.62422 29.45C1.21714 29.3482 0.916903 29.0031 0.872393 28.5859L0.00556362 20.4593C-0.0336134 20.0921 0.138368 19.7382 0.402231 19.4798C1.53108 18.3743 2.96895 15.7499 2.29381 11.4703C2.24212 11.1426 2.3427 10.8067 2.57726 10.5721L2.95431 10.1951C3.18006 9.96932 3.23603 9.62444 3.09325 9.33888C2.8522 8.85679 3.18957 8.28671 3.72816 8.266L8.74413 8.07307C8.97952 8.06402 9.21056 8.13836 9.3965 8.28298L9.80895 8.60378C10.0769 8.81218 10.4286 8.87164 10.7492 8.75996C17.4847 6.41326 30.0479 2.16293 32.5239 1.80335C32.7143 1.7757 32.8733 1.70772 32.9066 1.51824C32.9783 1.11025 33.4111 0.201046 33.8251 0.215394C34.6716 0.244732 35.6574 0.397395 36.4089 0.816745C36.6267 0.938273 36.8642 1.01434 37.1126 0.990943C46.8121 0.0772094 66.9761 -0.995647 73.0242 1.78051C79.219 4.96165 91.9602 11.3742 93.3666 11.5751C101.931 12.1543 119.771 14.7293 123.383 20.4157C123.467 20.5475 123.508 20.6974 123.516 20.8533L123.971 29.7692C124.058 31.4839 122.691 32.9221 120.975 32.9221L112.195 32.9221C111.172 37.312 107.234 40.5824 102.533 40.5824C97.8317 40.5824 93.8942 37.312 92.8715 32.9221L36.0985 32.9221C35.0757 37.3119 31.1382 40.5823 26.4369 40.5823C21.7357 40.5823 17.7982 37.3119 16.7754 32.9221Z" fill="#027DF1"/>
</svg>
